<svg width="94" height="100" viewBox="0 0 94 100" fill="none" xmlns="http://www.w3.org/2000/svg">
<path d="M11.1887 18.4774C3.71984 27.6732 -0.241231 39.2222 0.0113769 51.0662C0.263985 62.9103 4.71386 74.2799 12.568 83.1489C-7.1566 57.6071 8.30476 56.5518 27.5051 50.4799C-2.09254 51.815 -5.68581 44.8204 11.1887 18.4774Z" fill="black"/>
<path fill-rule="evenodd" clip-rule="evenodd" d="M61.146 30.4548C74.7711 6.78787 74.8552 -2.24109 40.7931 0.855083C29.1489 3.03653 18.6575 9.28161 11.1887 18.4774C-5.68581 44.8204 -2.09254 51.815 27.5051 50.4799C8.30476 56.5518 -7.1566 57.6071 12.568 83.1489C20.4221 92.0179 31.1702 97.81 42.8968 99.493C71.672 101.819 73.5816 93.6433 61.9692 69.0524C57.455 71.8883 52.0806 73.0292 46.8036 72.2719C41.5266 71.5145 36.69 68.9081 33.1556 64.9171C29.6212 60.926 27.6188 55.8097 27.5051 50.4799C27.3915 45.15 29.1739 39.953 32.5349 35.8149C35.8959 31.6768 40.617 28.8665 45.8569 27.8848C51.0968 26.9032 56.515 27.814 61.146 30.4548Z" fill="#900101"/>
<path d="M42.8968 99.493C54.6234 101.176 66.5667 98.6405 76.5982 92.3385C82.7133 88.4968 87.8757 83.4076 91.7841 77.4608C95.9549 71.1148 91.8017 63.2254 84.5615 60.9347C77.3213 58.644 69.7055 63.2522 63.675 67.8675C63.1269 68.287 62.5579 68.6825 61.9692 69.0524C73.5816 93.6433 71.672 101.819 42.8968 99.493Z" fill="black"/>
<path d="M84.0639 37.6019C91.1998 35.0046 95.0129 26.9453 90.5753 20.7829C86.4169 15.0081 81.0422 10.1436 74.7688 6.56617C64.4778 0.697565 52.4373 -1.32636 40.7931 0.855083C74.8552 -2.24109 74.7711 6.78787 61.146 30.4548C61.7499 30.7992 62.3353 31.1701 62.9008 31.5659C69.1226 35.9199 76.9279 40.1991 84.0639 37.6019Z" fill="black"/>
</svg>
